<svg viewBox="0 0 400 400" xmlns="http://www.w3.org/2000/svg">
  <!-- Circular background -->
  <circle cx="200" cy="200" r="180" fill="none" stroke="#1a1a1a" stroke-width="3" opacity="0.15"/>
  <circle cx="200" cy="200" r="160" fill="none" stroke="#1a1a1a" stroke-width="2" opacity="0.15"/>
  
  <!-- Large AJ Letters -->
  <text x="200" y="230" font-family="Arial, Helvetica, sans-serif" font-size="140" font-weight="bold" text-anchor="middle" fill="#1a1a1a" opacity="0.15">AJ</text>
  
  <!-- Company subtitle arc on top -->
  <path id="topCurve" d="M 80,200 A 120,120 0 0,1 320,200" fill="none"/>
  <text font-family="Arial, Helvetica, sans-serif" font-size="18" font-weight="normal" fill="#1a1a1a" opacity="0.15">
    <textPath href="#topCurve" startOffset="50%" text-anchor="middle">
      IMPORT & EXPORT
    </textPath>
  </text>
  
  <!-- Company subtitle arc on bottom -->
  <path id="bottomCurve" d="M 80,200 A 120,120 0 0,0 320,200" fill="none"/>
  <text font-family="Arial, Helvetica, sans-serif" font-size="18" font-weight="normal" fill="#1a1a1a" opacity="0.15">
    <textPath href="#bottomCurve" startOffset="50%" text-anchor="middle">
      MERCHANT
    </textPath>
  </text>
  
  <!-- Decorative corner elements -->
  <path d="M 40,40 L 80,40 L 80,45 L 45,45 L 45,80 L 40,80 Z" fill="#1a1a1a" opacity="0.12"/>
  <path d="M 360,40 L 320,40 L 320,45 L 355,45 L 355,80 L 360,80 Z" fill="#1a1a1a" opacity="0.12"/>
  <path d="M 40,360 L 80,360 L 80,355 L 45,355 L 45,320 L 40,320 Z" fill="#1a1a1a" opacity="0.12"/>
  <path d="M 360,360 L 320,360 L 320,355 L 355,355 L 355,320 L 360,320 Z" fill="#1a1a1a" opacity="0.12"/>
</svg>